<?xml version="1.0" encoding="UTF-8"?>
<svg version="1.1" xmlns="http://www.w3.org/2000/svg" width="173" height="166">
<path d="M0 0 C57.09 0 114.18 0 173 0 C173 54.78 173 109.56 173 166 C115.91 166 58.82 166 0 166 C0 111.22 0 56.44 0 0 Z " fill="#154744" transform="translate(0,0)"/>
<path d="M0 0 C0.9384375 0.26683594 1.876875 0.53367187 2.84375 0.80859375 C18.68165748 5.92860695 32.0808129 17.49301753 40 32 C44.86834219 43.05879762 47.12984531 53.74357466 47.25 65.75 C47.2641394 66.81408081 47.2641394 66.81408081 47.27856445 67.8996582 C47.17799699 84.10240532 38.14061544 99.58105062 27.4375 111.125 C12.97760031 125.101438 -4.83497119 129.52281997 -24.3828125 129.28515625 C-31.40343674 129.05113544 -37.43334859 127.54335891 -44 125 C-45.20076172 124.58427734 -45.20076172 124.58427734 -46.42578125 124.16015625 C-63.61935635 117.53314773 -73.9453262 102.91445664 -81.23388672 86.79052734 C-87.41644725 72.34091009 -86.95422353 54.07963085 -81.4765625 39.484375 C-77.54274116 30.20138919 -72.04226884 23.1718089 -65 16 C-64.31164062 15.28714844 -63.62328125 14.57429688 -62.9140625 13.83984375 C-46.08744692 -2.39252333 -21.90522562 -6.26250881 0 0 Z " fill="#184946" transform="translate(105,20)"/>
<path d="M0 0 C2.29284618 2.29284618 2.6796154 3.72933756 3.5625 6.8125 C3.81128906 7.66457031 4.06007813 8.51664063 4.31640625 9.39453125 C4.97535174 11.90605492 5.49077886 14.45389432 6 17 C14.91 17 23.82 17 33 17 C33 28.4168348 30.63793378 36.40407637 27 47 C26.34 47 25.68 47 25 47 C24.73960937 47.72703125 24.47921875 48.4540625 24.2109375 49.203125 C18.98034852 61.28409825 7.26181645 69.65886531 -4.625 74.4375 C-21.1263723 80.64176831 -36.78171568 81.25076472 -53 74 C-53.88042969 73.65066406 -54.76085938 73.30132812 -55.66796875 72.94140625 C-70.23047647 66.62095377 -80.22326905 53.0561937 -86.4375 38.875 C-88.99633284 31.80607823 -90 24.48694071 -90 17 C-80.76 17 -71.52 17 -62 17 C-61.01 13.37 -60.02 9.74 -59 6 C-58.34 4.35 -57.68 2.7 -57 1 C-55 2 -55 2 -53.99438477 4.75292969 C-53.64690186 5.96368164 -53.29941895 7.17443359 -52.94140625 8.421875 C-52.75158676 9.07770569 -52.56176727 9.73353638 -52.36619568 10.40924072 C-51.9633146 11.80708042 -51.56426345 13.20602865 -51.16870117 14.60595703 C-50.57604606 16.70208963 -49.97182032 18.79458073 -49.36523438 20.88671875 C-47.540353 27.23401731 -45.84523278 33.55327638 -44.46484375 40.015625 C-43.31714604 45.20923059 -41.62523156 49.38321347 -39 54 C-38.80365967 53.26475098 -38.60731934 52.52950195 -38.4050293 51.77197266 C-37.50074971 48.38922828 -36.59413967 45.00711256 -35.6875 41.625 C-35.37876953 40.46871094 -35.07003906 39.31242187 -34.75195312 38.12109375 C-32.94261405 31.37892499 -31.05626952 24.671198 -29 18 C-28.34 18 -27.68 18 -27 18 C-26.75878418 18.93513428 -26.75878418 18.93513428 -26.51269531 19.88916016 C-23.47857812 31.6339205 -20.42858425 43.36298169 -17 55 C-15.38229982 51.97279217 -14.27715432 48.97282679 -13.265625 45.6953125 C-12.94150635 44.64674072 -12.6173877 43.59816895 -12.28344727 42.51782227 C-11.77189087 40.83837524 -11.77189087 40.83837524 -11.25 39.125 C-10.89800537 37.97636475 -10.54601074 36.82772949 -10.18334961 35.64428711 C-7.0905647 25.4678689 -4.24850685 15.23154209 -1.53735352 4.94750977 C-1.07801962 3.28276354 -0.54611058 1.63833173 0 0 Z " fill="#184946" transform="translate(114,66)"/>
<path d="M0 0 C0.9384375 0.26683594 1.876875 0.53367187 2.84375 0.80859375 C18.68165748 5.92860695 32.0808129 17.49301753 40 32 C44.86834219 43.05879762 47.12984531 53.74357466 47.25 65.75 C47.2641394 66.81408081 47.2641394 66.81408081 47.27856445 67.8996582 C47.17799699 84.10240532 38.14061544 99.58105062 27.4375 111.125 C12.97760031 125.101438 -4.83497119 129.52281997 -24.3828125 129.28515625 C-31.40343674 129.05113544 -37.43334859 127.54335891 -44 125 C-45.20076172 124.58427734 -45.20076172 124.58427734 -46.42578125 124.16015625 C-63.61935635 117.53314773 -73.9453262 102.91445664 -81.23388672 86.79052734 C-87.41644725 72.34091009 -86.95422353 54.07963085 -81.4765625 39.484375 C-77.54274116 30.20138919 -72.04226884 23.1718089 -65 16 C-64.31164062 15.28714844 -63.62328125 14.57429688 -62.9140625 13.83984375 C-46.08744692 -2.39252333 -21.90522562 -6.26250881 0 0 Z M-66.125 23 C-74.37546662 32.64231363 -80 45.31298737 -80 58 C-72.08 58 -64.16 58 -56 58 C-52.68605776 49.87902413 -52.68605776 49.87902413 -50.3125 41.6875 C-50.08175781 40.72199219 -49.85101563 39.75648437 -49.61328125 38.76171875 C-49.04006589 36.18042409 -48.50581768 33.59527017 -48 31 C-47.34 31.33 -46.68 31.66 -46 32 C-45.45882925 34.08439944 -45.0183731 36.19522713 -44.625 38.3125 C-43.71071462 42.86564119 -42.69143704 47.19163535 -41.125 51.5625 C-38.82803546 58.10001446 -37.30181021 64.7831582 -35.75048828 71.52758789 C-34.62978248 76.39897696 -33.42508189 81.20832558 -32 86 C-31.01 86 -30.02 86 -29 86 C-28.92523438 85.44957031 -28.85046875 84.89914063 -28.7734375 84.33203125 C-27.53620919 76.50838166 -25.3730744 69.01808343 -23.12060547 61.4387207 C-21.80236786 56.97163472 -20.61995892 52.63055734 -20 48 C-19.34 48 -18.68 48 -18 48 C-17.90203125 48.55945313 -17.8040625 49.11890625 -17.703125 49.6953125 C-16.28856446 57.28028367 -14.17381912 64.60275939 -12 72 C-11.24541406 74.6236966 -10.49760267 77.24930638 -9.75 79.875 C-9.24726563 81.63457031 -9.24726563 81.63457031 -8.734375 83.4296875 C-8.49203125 84.27789062 -8.2496875 85.12609375 -8 86 C-5.76409438 85.17121285 -5.76409438 85.17121285 -5.19384766 82.72192383 C-4.93651855 81.72700928 -4.67918945 80.73209473 -4.4140625 79.70703125 C-4.12499023 78.60818604 -3.83591797 77.50934082 -3.53808594 76.37719727 C-3.0861084 74.61267212 -3.0861084 74.61267212 -2.625 72.8125 C-1.99816365 70.42167356 -1.37056611 68.03104655 -0.7421875 65.640625 C-0.44151367 64.48884766 -0.14083984 63.33707031 0.16894531 62.15039062 C1.14800045 58.43895482 2.183522 54.74970302 3.25 51.0625 C3.5490625 50.02609375 3.848125 48.9896875 4.15625 47.921875 C4.4346875 46.95765625 4.713125 45.9934375 5 45 C5.58883858 42.93906498 6.17247064 40.87663272 6.75 38.8125 C7.11351563 37.52279297 7.11351563 37.52279297 7.484375 36.20703125 C8.11375101 33.89085509 8.11375101 33.89085509 8 31 C8.66 31 9.32 31 10 31 C10.13140381 31.71567139 10.26280762 32.43134277 10.39819336 33.16870117 C10.99008835 35.95336902 11.75751921 38.59155974 12.62890625 41.30078125 C13.05151733 42.62203003 13.05151733 42.62203003 13.48266602 43.9699707 C13.83901123 45.07300537 14.19535645 46.17604004 14.5625 47.3125 C15.696875 50.839375 16.83125 54.36625 18 58 C25.92 58 33.84 58 42 58 C39.97641433 39.78772899 34.10588409 26.71217605 19.58984375 15.06640625 C-8.01348801 -5.27519323 -42.42907058 -1.20304075 -66.125 23 Z M9 46 C8.78085938 46.76699219 8.56171875 47.53398438 8.3359375 48.32421875 C7.83727029 50.06955399 7.33856358 51.81487799 6.83935547 53.56005859 C5.75855114 57.33965434 4.68171867 61.12033827 3.609375 64.90234375 C0.18266236 76.96884386 -3.36369459 88.99503428 -7 101 C-7.33 101 -7.66 101 -8 101 C-11.6122838 88.73948382 -14.80786697 76.37511292 -18 64 C-18.66 64 -19.32 64 -20 64 C-23.45208871 75.96989277 -26.85227111 87.94604997 -30 100 C-33.46601115 93.72250341 -35.27619127 87.71696084 -36.875 80.75 C-38.82403996 72.63130548 -40.87913292 64.56913099 -43.25 56.5625 C-43.4960498 55.71075195 -43.74209961 54.85900391 -43.99560547 53.98144531 C-44.6012161 51.96775861 -45.29235232 49.98013463 -46 48 C-46.66 47.67 -47.32 47.34 -48 47 C-48.83719383 49.29032311 -49.6698929 51.58210957 -50.5 53.875 C-50.85771484 54.85146484 -50.85771484 54.85146484 -51.22265625 55.84765625 C-52.54877533 59.33457589 -52.54877533 59.33457589 -53 63 C-62.24 63 -71.48 63 -81 63 C-79.24624268 84.04508788 -72.10947042 99.35569226 -56.17578125 113.30859375 C-51.23662945 117.14818573 -46.17782246 119.14501837 -40.3125 121.125 C-32.17639257 123.91180371 -32.17639257 123.91180371 -30 125 C-10.5079421 126.38579899 7.42666863 122.022427 22.66796875 109.21875 C30.12329239 102.18699493 30.12329239 102.18699493 34 93 C34.66 93 35.32 93 36 93 C36.81898266 90.79388434 37.63027543 88.5854166 38.4375 86.375 C38.88996094 85.14523438 39.34242188 83.91546875 39.80859375 82.6484375 C42.09302025 75.65284947 42 70.68614731 42 63 C33.09 63 24.18 63 15 63 C14.505 60.525 14.505 60.525 14 58 C13.33987941 55.88708391 12.65131299 53.78288651 11.9375 51.6875 C11.39416016 50.08455078 11.39416016 50.08455078 10.83984375 48.44921875 C10.56269531 47.64097656 10.28554687 46.83273438 10 46 C9.67 46 9.34 46 9 46 Z " fill="#E8EDED" transform="translate(105,20)"/>
</svg>
